<svg width="17" height="17" viewBox="0 0 17 17" fill="none" xmlns="http://www.w3.org/2000/svg">
<path d="M4.90133 7.83333H12.5993C13.174 7.83333 13.4793 7.15333 13.0973 6.72333L9.24866 2.39333C9.18624 2.32287 9.10957 2.26646 9.02372 2.22782C8.93787 2.18919 8.84481 2.16921 8.75067 2.16921C8.65653 2.16921 8.56346 2.18919 8.47761 2.22782C8.39176 2.26646 8.31509 2.32287 8.25266 2.39333L4.40266 6.72333C4.02067 7.15333 4.326 7.83333 4.90133 7.83333ZM8.252 14.606C8.31443 14.6765 8.3911 14.7329 8.47694 14.7715C8.56279 14.8101 8.65586 14.8301 8.75 14.8301C8.84414 14.8301 8.93721 14.8101 9.02305 14.7715C9.1089 14.7329 9.18557 14.6765 9.248 14.606L13.0967 10.276C13.4793 9.84667 13.174 9.16667 12.5987 9.16667H4.90133C4.32667 9.16667 4.02133 9.84667 4.40333 10.2767L8.252 14.606Z" fill="#9E9E9E"/>
</svg>
