<svg width="17" height="16" viewBox="0 0 17 16" fill="none" xmlns="http://www.w3.org/2000/svg">
<path d="M4.90133 7.33333H12.5993C13.174 7.33333 13.4793 6.65333 13.0973 6.22333L9.24866 1.89333C9.18624 1.82287 9.10957 1.76646 9.02372 1.72782C8.93787 1.68919 8.84481 1.66921 8.75067 1.66921C8.65653 1.66921 8.56346 1.68919 8.47761 1.72782C8.39176 1.76646 8.31509 1.82287 8.25266 1.89333L4.40266 6.22333C4.02067 6.65333 4.326 7.33333 4.90133 7.33333ZM8.252 14.106C8.31443 14.1765 8.3911 14.2329 8.47694 14.2715C8.56279 14.3101 8.65586 14.3301 8.75 14.3301C8.84414 14.3301 8.93721 14.3101 9.02305 14.2715C9.1089 14.2329 9.18557 14.1765 9.248 14.106L13.0967 9.776C13.4793 9.34667 13.174 8.66667 12.5987 8.66667H4.90133C4.32667 8.66667 4.02133 9.34667 4.40333 9.77667L8.252 14.106Z" fill="#9E9E9E"/>
</svg>
